<?xml version="1.0" standalone="yes"?>
<svg xmlns="http://www.w3.org/2000/svg" width="512" height="512">
<path style="fill:#020201; stroke:none;" d="M0 0L0 512L512 512L512 0L0 0z"/>
<path style="fill:#b9db8f; stroke:none;" d="M139 113C136.764 123.982 123.923 120.396 117 127.019C102.709 140.692 88.9857 155.014 75 169C68.7987 175.201 58.9769 182.102 55.0278 190C53.0433 193.969 54 199.689 54 204L54 236L54 350C57.0164 350 61.8655 350.871 64.436 348.972C67.0594 347.034 67.4908 341.853 68.7924 339C71.5306 332.998 75.2223 327.643 80.0147 323.09C102.852 301.396 134.309 308.048 153 331L154 331C172.691 308.048 204.148 301.396 226.985 323.09C237.175 332.77 237.011 349.998 252 350C252 344.238 251.182 337.82 255.394 333.214C260.002 328.175 266.811 329 273 329L312 329L312 178L302 178L302 276C302 286.108 305.821 306.009 300.821 314.891C293.623 327.678 287.001 310.556 287 304L260 304C259.999 311.321 253.133 327.575 246.028 313.981C241.234 304.808 245 285.299 245 275L245 178C235.204 178 215.122 181.799 207.109 175.486C202.226 171.639 203 165.547 203 160L203 122C191.785 122 161.958 127.527 159 113L139 113z"/>
<path style="fill:#5f724b; stroke:none;" d="M138 116L139 117L138 116M159 116L160 117L159 116M137 118L138 119L137 118M160 118L161 119L160 118M136 119L137 120L136 119M161 119L162 120L161 119z"/>
<path style="fill:#66636d; stroke:none;" d="M134 120L135 121L134 120M163 120L164 121L163 120z"/>
<path style="fill:#5f724b; stroke:none;" d="M123 121L123 122L132 122L123 121M166 121L166 122L203 122C193.202 117.889 176.649 121 166 121z"/>
<path style="fill:#66636d; stroke:none;" d="M203 122L203 170L204 170C204 156.474 208.209 134.414 203 122M218 126L218 137L219 137L219 127L257 127L257 137L258 137L258 126L218 126M272 136L273 136L273 127L324 127L324 137L325 137L325 126L288 126L273.603 127.028L272 136z"/>
<path style="fill:#5f724b; stroke:none;" d="M219 127L219 137L257 137L257 127L219 127z"/>
<path style="fill:#b9db8f; stroke:none;" d="M273 127L273 136L324 136L324 127L273 127z"/>
<path style="fill:#5f724b; stroke:none;" d="M273 136L273 137L324 137C310.873 131.492 287.311 136 273 136z"/>
<path style="fill:#66636d; stroke:none;" d="M218 152C218.002 167.68 232.614 163 245 163L245 162L219 162L218 152z"/>
<path style="fill:#5f724b; stroke:none;" d="M219 152L219 162L245 162L245 152L219 152z"/>
<path style="fill:#66636d; stroke:none;" d="M285 152L285 163L312 163L312 152L285 152z"/>
<path style="fill:#5f724b; stroke:none;" d="M136.667 166.333L137.333 166.667L136.667 166.333z"/>
<path style="fill:#66636d; stroke:none;" d="M138 166L138 167L141 167L138 166z"/>
<path style="fill:#5f724b; stroke:none;" d="M141 166L142 167L141 166M134 167L135 168L134 167z"/>
<path style="fill:#020201; stroke:none;" d="M115 199C98.8428 186.147 99.5577 214.86 107.419 222.682C111.607 226.85 116.919 224.03 119.756 219.956C126.893 209.708 134.061 197.462 139 186C141.378 189.593 143.509 193.312 145.735 196.999C149.161 202.676 161.032 208.077 161.326 196.996C161.588 187.138 145.378 159.885 133.213 168.742C129.02 171.795 126.386 178.582 123.85 183C120.824 188.272 117.571 193.494 115 199z"/>
<path style="fill:#5f724b; stroke:none;" d="M144 167L145 168L144 167z"/>
<path style="fill:#66636d; stroke:none;" d="M145 168L146 169L145 168M147 170L148 171L147 170z"/>
<path style="fill:#5f724b; stroke:none;" d="M203.333 170.667L203.667 171.333L203.333 170.667M130 171L131 172L130 171M148 171L149 172L148 171z"/>
<path style="fill:#66636d; stroke:none;" d="M129 173L130 174L129 173z"/>
<path style="fill:#5f724b; stroke:none;" d="M149 173L150 174L149 173M204 173L205 174L204 173z"/>
<path style="fill:#66636d; stroke:none;" d="M205 174L206 175L205 174M128 175L129 176L128 175M150 175L151 176L150 175M206 175L207 176L206 175z"/>
<path style="fill:#5f724b; stroke:none;" d="M127 176L128 177L127 176M207 176L208 177L207 176M210 177L210 178L245 178L210 177M260 177L260 178L287 178L260 177M302 177L302 178L312 178L302 177z"/>
<path style="fill:#66636d; stroke:none;" d="M327 177L327 178L403 178L379 177L327 177z"/>
<path style="fill:#5f724b; stroke:none;" d="M126 178L127 179L126 178M152 178L153 179L152 178z"/>
<path style="fill:#b9db8f; stroke:none;" d="M260 178L260 188L287 188L287 178L260 178z"/>
<path style="fill:#edecef; stroke:none;" d="M327 178L328 350C332.249 350 340.89 351.65 344.411 348.972C347.055 346.962 347.816 340.963 349.259 338C352.397 331.557 356.616 325.939 362.001 321.184C382.889 302.742 413.328 307.185 430.674 328C436.021 334.416 439.133 341.93 441 350L452 350C452 344.33 450.966 337.503 452.433 332C453.294 328.771 456 326.369 456.4 323C458.237 307.532 451.639 285.331 474 281.329C479.464 280.352 485.464 281 491 281C485.339 256.602 456.17 260.083 441.043 244.957C425.88 229.793 430.348 202.475 417.072 186.174C409.748 177.182 399.457 178 389 178L327 178z"/>
<path style="fill:#5f724b; stroke:none;" d="M405 178L406 179L405 178z"/>
<path style="fill:#66636d; stroke:none;" d="M406 178L407 179L406 178z"/>
<path style="fill:#5f724b; stroke:none;" d="M408 179L409 180L408 179z"/>
<path style="fill:#66636d; stroke:none;" d="M409 179L410 180L409 179M125 180L126 181L125 180z"/>
<path style="fill:#5f724b; stroke:none;" d="M153 180L154 181L153 180z"/>
<path style="fill:#b9db8f; stroke:none;" d="M410 180L411 181L410 180z"/>
<path style="fill:#5f724b; stroke:none;" d="M412 181L413 182L412 181z"/>
<path style="fill:#66636d; stroke:none;" d="M154 182L155 183L154 182z"/>
<path style="fill:#b9db8f; stroke:none;" d="M413 182L414 183L413 182z"/>
<path style="fill:#5f724b; stroke:none;" d="M123 183L124 184L123 183z"/>
<path style="fill:#b9db8f; stroke:none;" d="M414 183L415 184L414 183z"/>
<path style="fill:#5f724b; stroke:none;" d="M122 185L123 186L122 185M156 185L157 186L156 185z"/>
<path style="fill:#b9db8f; stroke:none;" d="M416 185L417 186L416 185z"/>
<path style="fill:#5f724b; stroke:none;" d="M139 186L140 187L139 186z"/>
<path style="fill:#b9db8f; stroke:none;" d="M417 186L418 187L417 186z"/>
<path style="fill:#66636d; stroke:none;" d="M121 187L122 188L121 187M138 187L139 188L138 187z"/>
<path style="fill:#5f724b; stroke:none;" d="M157 187L158 188L157 187z"/>
<path style="fill:#b9db8f; stroke:none;" d="M346 187L346 188L400 188L382 187L346 187z"/>
<path style="fill:#5f724b; stroke:none;" d="M418 187L419 188L418 187M120 188L121 189L120 188z"/>
<path style="fill:#b9db8f; stroke:none;" d="M342 188L343 189L342 188z"/>
<path style="fill:#66636d; stroke:none;" d="M343 188L344 189L343 188z"/>
<path style="fill:#020201; stroke:none;" d="M352 203L384 203C387.61 203 393.423 201.93 396.581 204.028C402.654 208.063 405.979 227.087 407 234C401.044 234.004 386.201 240.078 397.228 246.821C403.954 250.933 423.533 249.708 424.482 240C424.901 235.719 422.658 230.977 421.333 227C417.927 216.771 415.306 194.776 404.985 189.457C395.919 184.785 379.049 188 369 188C361.646 188 348.37 185.47 342.059 189.742C337.439 192.87 338 198.083 338 203L338 234C338.002 238.588 337.446 244.197 342.109 246.821C348.28 250.295 376.344 250.97 372.932 239.044C370.315 229.895 358.594 237.387 353.603 232.397C348.865 227.658 352 209.46 352 203z"/>
<path style="fill:#66636d; stroke:none;" d="M403 188L404 189L403 188z"/>
<path style="fill:#b9db8f; stroke:none;" d="M404 188L405 189L404 188z"/>
<path style="fill:#5f724b; stroke:none;" d="M137 189L138 190L137 189z"/>
<path style="fill:#66636d; stroke:none;" d="M141 189L142 190L141 189M158 189L159 190L158 189M341 189L342 190L341 189M405 189L406 190L405 189z"/>
<path style="fill:#b9db8f; stroke:none;" d="M406 189L407 190L406 189M419 189L420 190L419 189z"/>
<path style="fill:#5f724b; stroke:none;" d="M119 190L120 191L119 190M159 190L160 191L159 190z"/>
<path style="fill:#66636d; stroke:none;" d="M340 190L341 191L340 190z"/>
<path style="fill:#5f724b; stroke:none;" d="M407 190L408 191L407 190z"/>
<path style="fill:#66636d; stroke:none;" d="M420 190L421 191L420 190z"/>
<path style="fill:#5f724b; stroke:none;" d="M136 191L137 192L136 191M142 191L143 192L142 191z"/>
<path style="fill:#66636d; stroke:none;" d="M339 191L340 192L339 191M408 191L409 192L408 191z"/>
<path style="fill:#5f724b; stroke:none;" d="M420 191L421 192L420 191z"/>
<path style="fill:#66636d; stroke:none;" d="M118 192L119 193L118 192M135 192L136 193L135 192z"/>
<path style="fill:#5f724b; stroke:none;" d="M160 192L161 193L160 192M338 192L339 193L338 192M409 192L410 193L409 192M143 193L144 194L143 193z"/>
<path style="fill:#b9db8f; stroke:none;" d="M410 193L411 194L410 193z"/>
<path style="fill:#66636d; stroke:none;" d="M421 193L422 194L421 193M117 194L118 195L117 194M134 194L135 195L134 194M144 194L145 195L144 194z"/>
<path style="fill:#5f724b; stroke:none;" d="M161 194L162 195L161 194z"/>
<path style="fill:#b9db8f; stroke:none;" d="M337 194L338 195L337 194z"/>
<path style="fill:#66636d; stroke:none;" d="M410 194L411 195L410 194z"/>
<path style="fill:#b9db8f; stroke:none;" d="M421 194L422 195L421 194z"/>
<path style="fill:#5f724b; stroke:none;" d="M105 195L106 196L105 195z"/>
<path style="fill:#66636d; stroke:none;" d="M106 195L107 196L106 195z"/>
<path style="fill:#5f724b; stroke:none;" d="M110 195L111 196L110 195M116 195L117 196L116 195z"/>
<path style="fill:#66636d; stroke:none;" d="M161 195L162 196L161 195z"/>
<path style="fill:#5f724b; stroke:none;" d="M337 195L338 196L337 195z"/>
<path style="fill:#b9db8f; stroke:none;" d="M411 195L412 196L411 195z"/>
<path style="fill:#66636d; stroke:none;" d="M112 196L113 197L112 196z"/>
<path style="fill:#5f724b; stroke:none;" d="M133 196L134 197L133 196z"/>
<path style="fill:#66636d; stroke:none;" d="M145 196L146 197L145 196M337 196L337 241L338 241C338 228.258 341.91 207.701 337 196M411 196L412 197L411 196M422 196L423 197L422 196M113 197L114 198L113 197z"/>
<path style="fill:#5f724b; stroke:none;" d="M115 197L116 198L115 197z"/>
<path style="fill:#b9db8f; stroke:none;" d="M422 197L423 198L422 197z"/>
<path style="fill:#66636d; stroke:none;" d="M114 198L115 199L114 198z"/>
<path style="fill:#5f724b; stroke:none;" d="M132 198L133 199L132 198M146 198L147 199L146 198z"/>
<path style="fill:#66636d; stroke:none;" d="M161 198L162 199L161 198z"/>
<path style="fill:#b9db8f; stroke:none;" d="M412 198L413 199L412 198z"/>
<path style="fill:#5f724b; stroke:none;" d="M101 199L102 200L101 199z"/>
<path style="fill:#66636d; stroke:none;" d="M131 199L132 200L131 199z"/>
<path style="fill:#5f724b; stroke:none;" d="M161 199L162 200L161 199z"/>
<path style="fill:#66636d; stroke:none;" d="M412 199L413 200L412 199M423 199L424 200L423 199z"/>
<path style="fill:#5f724b; stroke:none;" d="M147 200L148 201L147 200z"/>
<path style="fill:#b9db8f; stroke:none;" d="M423 200L424 201L423 200z"/>
<path style="fill:#5f724b; stroke:none;" d="M130 201L131 202L130 201z"/>
<path style="fill:#66636d; stroke:none;" d="M148 201L149 202L148 201z"/>
<path style="fill:#b9db8f; stroke:none;" d="M413 201L414 202L413 201z"/>
<path style="fill:#66636d; stroke:none;" d="M149 202L150 203L149 202z"/>
<path style="fill:#5f724b; stroke:none;" d="M159 202L160 203L159 202z"/>
<path style="fill:#66636d; stroke:none;" d="M413 202L414 203L413 202M424 202L425 203L424 202z"/>
<path style="fill:#5f724b; stroke:none;" d="M129 203L130 204L129 203M150 203L151 204L150 203z"/>
<path style="fill:#66636d; stroke:none;" d="M157 203L158 204L157 203z"/>
<path style="fill:#b9db8f; stroke:none;" d="M260 203L260 213L287 213L287 203L260 203z"/>
<path style="fill:#66636d; stroke:none;" d="M352 203C352 209.636 348.861 227.136 353.028 232.397C355.721 235.797 363.23 233.388 366.995 234.434C370.655 235.45 372.008 238.985 375.259 240.397C380.273 242.576 388.585 241 394 241C396.246 234.554 400.787 234.018 407 234C406.405 227.187 402.986 208.294 397.298 204.028C394.416 201.866 388.395 203 385 203L352 203z"/>
<path style="fill:#b9db8f; stroke:none;" d="M424 203L425 204L424 203z"/>
<path style="fill:#5f724b; stroke:none;" d="M153 204L153 205L156 205L153 204z"/>
<path style="fill:#b9db8f; stroke:none;" d="M414 204L415 205L414 204z"/>
<path style="fill:#66636d; stroke:none;" d="M101 205L102 206L101 205z"/>
<path style="fill:#5f724b; stroke:none;" d="M414 205L415 206L414 205z"/>
<path style="fill:#66636d; stroke:none;" d="M425 205L426 206L425 205z"/>
<path style="fill:#5f724b; stroke:none;" d="M101 206L102 207L101 206z"/>
<path style="fill:#66636d; stroke:none;" d="M127 206L128 207L127 206z"/>
<path style="fill:#5f724b; stroke:none;" d="M425 206L426 207L425 206z"/>
<path style="fill:#b9db8f; stroke:none;" d="M415 207L416 208L415 207z"/>
<path style="fill:#5f724b; stroke:none;" d="M126 208L127 209L126 208M415 208L416 209L415 208z"/>
<path style="fill:#66636d; stroke:none;" d="M426 208L427 209L426 208M102 209L103 210L102 209M415 209L416 210L415 209z"/>
<path style="fill:#5f724b; stroke:none;" d="M426 209L427 210L426 209M102 210L103 211L102 210M125 210L126 211L125 210M164 210L165 211L164 210z"/>
<path style="fill:#66636d; stroke:none;" d="M165 210L165 211L168 211L165 210z"/>
<path style="fill:#5f724b; stroke:none;" d="M168 210L169 211L168 210z"/>
<path style="fill:#66636d; stroke:none;" d="M124 211L125 212L124 211M162 211L163 212L162 211z"/>
<path style="fill:#020201; stroke:none;" d="M180 257L169 257.001C162.627 257.034 149.999 263.011 159.279 270.258C162.418 272.709 167.281 272 171 272C179.544 272.001 197.053 275.28 198.562 263C199.876 252.309 186.104 238.524 182 229C187.705 227.359 191.644 220.41 185.656 216.089C180.026 212.026 157.969 206.089 159.495 219.001C160.997 231.702 174.602 245.439 180 257z"/>
<path style="fill:#66636d; stroke:none;" d="M171 211L172 212L171 211z"/>
<path style="fill:#5f724b; stroke:none;" d="M172 211L173 212L172 211M416 211L417 212L416 211z"/>
<path style="fill:#66636d; stroke:none;" d="M427 211L428 212L427 211z"/>
<path style="fill:#5f724b; stroke:none;" d="M175 212L176 213L175 212z"/>
<path style="fill:#66636d; stroke:none;" d="M416 212L417 213L416 212z"/>
<path style="fill:#5f724b; stroke:none;" d="M427 212L428 213L427 212M103.333 213.667L103.667 214.333L103.333 213.667z"/>
<path style="fill:#66636d; stroke:none;" d="M123 213L124 214L123 213M160 213L161 214L160 213M178 213L179 214L178 213z"/>
<path style="fill:#5f724b; stroke:none;" d="M179 213L180 214L179 213z"/>
<path style="fill:#b9db8f; stroke:none;" d="M427 213L428 214L427 213z"/>
<path style="fill:#5f724b; stroke:none;" d="M159 214L160 215L159 214z"/>
<path style="fill:#66636d; stroke:none;" d="M182 214L183 215L182 214z"/>
<path style="fill:#5f724b; stroke:none;" d="M183 214L184 215L183 214M417 214L418 215L417 214M122 215L123 216L122 215z"/>
<path style="fill:#66636d; stroke:none;" d="M159 215L160 216L159 215z"/>
<path style="fill:#5f724b; stroke:none;" d="M185 215L186 216L185 215z"/>
<path style="fill:#66636d; stroke:none;" d="M417 215L418 216L417 215z"/>
<path style="fill:#5f724b; stroke:none;" d="M428 215L429 216L428 215z"/>
<path style="fill:#b9db8f; stroke:none;" d="M428 216L429 217L428 216z"/>
<path style="fill:#5f724b; stroke:none;" d="M104 217L105 218L104 217M121 217L122 218L121 217z"/>
<path style="fill:#66636d; stroke:none;" d="M187 217L188 218L187 217z"/>
<path style="fill:#b9db8f; stroke:none;" d="M418 217L419 218L418 217M38 218C31.3412 224.659 17.9785 233.696 15.4336 243C12.4531 253.896 15 268.709 15 280C15 287.237 15.1481 293.705 7 296L7 316C15.5521 318.409 15 325.542 15 333L39 333L39 316C21.7831 315.643 21.4638 300.012 39 300L39 290C21.6501 289.854 21.3999 274.012 39 274L39 264C21.3169 263.949 21.3067 248.012 39 248L38 218z"/>
<path style="fill:#66636d; stroke:none;" d="M120 218L121 219L120 218z"/>
<path style="fill:#5f724b; stroke:none;" d="M188 218L189 219L188 218z"/>
<path style="fill:#66636d; stroke:none;" d="M418 218L419 219L418 218M429 218L430 219L429 218z"/>
<path style="fill:#b9db8f; stroke:none;" d="M429 219L430 220L429 219z"/>
<path style="fill:#66636d; stroke:none;" d="M105 220L106 221L105 220z"/>
<path style="fill:#5f724b; stroke:none;" d="M119 220L120 221L119 220M159 220L160 221L159 220z"/>
<path style="fill:#b9db8f; stroke:none;" d="M419 220L420 221L419 220z"/>
<path style="fill:#66636d; stroke:none;" d="M419 221L420 222L419 221M430 221L431 222L430 221z"/>
<path style="fill:#5f724b; stroke:none;" d="M106 222L107 223L106 222M160 222L161 223L160 222z"/>
<path style="fill:#b9db8f; stroke:none;" d="M430 222L431 223L430 222z"/>
<path style="fill:#66636d; stroke:none;" d="M107 223L108 224L107 223z"/>
<path style="fill:#5f724b; stroke:none;" d="M117 223L118 224L117 223z"/>
<path style="fill:#b9db8f; stroke:none;" d="M420 223L421 224L420 223z"/>
<path style="fill:#5f724b; stroke:none;" d="M108 224L109 225L108 224z"/>
<path style="fill:#66636d; stroke:none;" d="M115 224L116 225L115 224z"/>
<path style="fill:#5f724b; stroke:none;" d="M161 224L162 225L161 224z"/>
<path style="fill:#66636d; stroke:none;" d="M188 224L189 225L188 224M420 224L421 225L420 224M431 224L432 225L431 224z"/>
<path style="fill:#5f724b; stroke:none;" d="M111 225L111 226L114 226L111 225M188 225L189 226L188 225z"/>
<path style="fill:#b9db8f; stroke:none;" d="M431 225L432 226L431 225z"/>
<path style="fill:#66636d; stroke:none;" d="M187 226L188 227L187 226z"/>
<path style="fill:#b9db8f; stroke:none;" d="M421 226L422 227L421 226z"/>
<path style="fill:#66636d; stroke:none;" d="M163 227L164 228L163 227M186 227L187 228L186 227M421 227L422 228L421 227M432 227L433 228L432 227z"/>
<path style="fill:#5f724b; stroke:none;" d="M185 228L186 229L185 228z"/>
<path style="fill:#b9db8f; stroke:none;" d="M260 228L260 238L287 238L287 228L260 228M432 228L433 229L432 228z"/>
<path style="fill:#5f724b; stroke:none;" d="M164 229L165 230L164 229M182.333 229.667L182.667 230.333L182.333 229.667z"/>
<path style="fill:#b9db8f; stroke:none;" d="M422 229L423 230L422 229z"/>
<path style="fill:#5f724b; stroke:none;" d="M422 230L423 231L422 230z"/>
<path style="fill:#66636d; stroke:none;" d="M433 230L434 231L433 230z"/>
<path style="fill:#5f724b; stroke:none;" d="M98 231L99 232L98 231z"/>
<path style="fill:#66636d; stroke:none;" d="M99.6667 231.333L100.333 231.667L99.6667 231.333z"/>
<path style="fill:#5f724b; stroke:none;" d="M101.667 231.333L102.333 231.667L101.667 231.333M165 231L166 232L165 231M433 231L434 232L433 231z"/>
<path style="fill:#66636d; stroke:none;" d="M96 232L97 233L96 232z"/>
<path style="fill:#020201; stroke:none;" d="M122 272C120.426 277.8 123.958 284.812 131 282.253C136.319 280.32 144.306 272.409 146.063 267C147.895 261.36 143.08 257.615 137.999 257.105C125.253 255.825 111.813 257 99 257C100.651 253.167 102.851 249.675 104.821 246C108.034 240.005 106.982 228.545 97.1852 232.743C88.8825 236.301 75.7685 261.311 83.2284 268.772C90.5075 276.051 112.301 272 122 272z"/>
<path style="fill:#5f724b; stroke:none;" d="M104 232L105 233L104 232M183 232L184 233L183 232z"/>
<path style="fill:#b9db8f; stroke:none;" d="M423 232L424 233L423 232z"/>
<path style="fill:#5f724b; stroke:none;" d="M105 233L106 234L105 233M423 233L424 234L423 233z"/>
<path style="fill:#66636d; stroke:none;" d="M434 233L435 234L434 233M94 234L95 235L94 234z"/>
<path style="fill:#5f724b; stroke:none;" d="M106 234L107 235L106 234z"/>
<path style="fill:#66636d; stroke:none;" d="M167 234L168 235L167 234M184 234L185 235L184 234z"/>
<path style="fill:#5f724b; stroke:none;" d="M434 234L435 235L434 234M93 235L94 236L93 235M185 235L186 236L185 235M107 236L108 237L107 236M168 236L169 237L168 236M424 236L425 237L424 236z"/>
<path style="fill:#66636d; stroke:none;" d="M435 236L436 237L435 236z"/>
<path style="fill:#5f724b; stroke:none;" d="M92 237L93 238L92 237z"/>
<path style="fill:#66636d; stroke:none;" d="M107 237L108 238L107 237z"/>
<path style="fill:#5f724b; stroke:none;" d="M186 237L187 238L186 237z"/>
<path style="fill:#66636d; stroke:none;" d="M424 237L425 238L424 237z"/>
<path style="fill:#b9db8f; stroke:none;" d="M435 237L436 238L435 237z"/>
<path style="fill:#5f724b; stroke:none;" d="M169 238L170 239L169 238z"/>
<path style="fill:#66636d; stroke:none;" d="M260 238L260 239L287 239L260 238M91 239L92 240L91 239M170 239L171 240L170 239M187 239L188 240L187 239z"/>
<path style="fill:#5f724b; stroke:none;" d="M436 239L437 240L436 239M90 240L91 241L90 240z"/>
<path style="fill:#66636d; stroke:none;" d="M107 240L108 241L107 240z"/>
<path style="fill:#5f724b; stroke:none;" d="M15 241L16 242L15 241M107 241L108 242L107 241z"/>
<path style="fill:#66636d; stroke:none;" d="M171 241L172 242L171 241M188 241L189 242L188 241z"/>
<path style="fill:#5f724b; stroke:none;" d="M337 241L338 242L337 241z"/>
<path style="fill:#66636d; stroke:none;" d="M373 241L374 242L373 241z"/>
<path style="fill:#5f724b; stroke:none;" d="M393 241L394 242L393 241z"/>
<path style="fill:#66636d; stroke:none;" d="M424 241L425 242L424 241z"/>
<path style="fill:#b9db8f; stroke:none;" d="M437 241L438 242L437 241z"/>
<path style="fill:#5f724b; stroke:none;" d="M89 242L90 243L89 242M189 242L190 243L189 242M373 242L374 243L373 242z"/>
<path style="fill:#b9db8f; stroke:none;" d="M393 242L394 243L393 242M424 242L425 243L424 242z"/>
<path style="fill:#66636d; stroke:none;" d="M438 242L439 243L438 242z"/>
<path style="fill:#5f724b; stroke:none;" d="M106 243L107 244L106 243M172 243L173 244L172 243z"/>
<path style="fill:#66636d; stroke:none;" d="M338 243L339 244L338 243z"/>
<path style="fill:#b9db8f; stroke:none;" d="M373 243L374 244L373 243z"/>
<path style="fill:#66636d; stroke:none;" d="M439 243L440 244L439 243M88 244L89 245L88 244M105 244L106 245L105 244z"/>
<path style="fill:#5f724b; stroke:none;" d="M190 244L191 245L190 244z"/>
<path style="fill:#b9db8f; stroke:none;" d="M338 244L339 245L338 244z"/>
<path style="fill:#66636d; stroke:none;" d="M394 244L395 245L394 244z"/>
<path style="fill:#b9db8f; stroke:none;" d="M423 244L424 245L423 244z"/>
<path style="fill:#66636d; stroke:none;" d="M440 244L441 245L440 244z"/>
<path style="fill:#5f724b; stroke:none;" d="M173 245L174 246L173 245z"/>
<path style="fill:#b9db8f; stroke:none;" d="M339 245L340 246L339 245M372 245L373 246L372 245z"/>
<path style="fill:#66636d; stroke:none;" d="M422 245L423 246L422 245M441 245L442 246L441 245M87 246L88 247L87 246z"/>
<path style="fill:#5f724b; stroke:none;" d="M104 246L105 247L104 246z"/>
<path style="fill:#66636d; stroke:none;" d="M174 246L175 247L174 246M191 246L192 247L191 246z"/>
<path style="fill:#b9db8f; stroke:none;" d="M340 246L341 247L340 246z"/>
<path style="fill:#5f724b; stroke:none;" d="M371 246L372 247L371 246z"/>
<path style="fill:#b9db8f; stroke:none;" d="M395 246L396 247L395 246z"/>
<path style="fill:#66636d; stroke:none;" d="M421 246L422 247L421 246M442 246L443 247L442 246z"/>
<path style="fill:#5f724b; stroke:none;" d="M86 247L87 248L86 247z"/>
<path style="fill:#b9db8f; stroke:none;" d="M341 247L342 248L341 247z"/>
<path style="fill:#66636d; stroke:none;" d="M342 247L343 248L342 247z"/>
<path style="fill:#b9db8f; stroke:none;" d="M370 247L371 248L370 247M396 247L397 248L396 247z"/>
<path style="fill:#66636d; stroke:none;" d="M397 247L398 248L397 247z"/>
<path style="fill:#b9db8f; stroke:none;" d="M420 247L421 248L420 247z"/>
<path style="fill:#5f724b; stroke:none;" d="M443 247L444 248L443 247M29 248L29 249L32 249L29 248z"/>
<path style="fill:#66636d; stroke:none;" d="M32 248L32 249L39 249L32 248z"/>
<path style="fill:#5f724b; stroke:none;" d="M103 248L104 249L103 248M175 248L176 249L175 248M344 248L345 249L344 248z"/>
<path style="fill:#66636d; stroke:none;" d="M345 248L345 249L368 249L345 248z"/>
<path style="fill:#b9db8f; stroke:none;" d="M368 248L369 249L368 248M398 248L399 249L398 248z"/>
<path style="fill:#5f724b; stroke:none;" d="M399 248L400 249L399 248z"/>
<path style="fill:#66636d; stroke:none;" d="M400 248L400 249L417 249L400 248z"/>
<path style="fill:#5f724b; stroke:none;" d="M417 248L418 249L417 248z"/>
<path style="fill:#b9db8f; stroke:none;" d="M418 248L419 249L418 248M444 248L445 249L444 248z"/>
<path style="fill:#66636d; stroke:none;" d="M445 248L446 249L445 248z"/>
<path style="fill:#5f724b; stroke:none;" d="M27 249L28 250L27 249M85 249L86 250L85 249M193 249L194 250L193 249z"/>
<path style="fill:#b9db8f; stroke:none;" d="M446 249L447 250L446 249z"/>
<path style="fill:#66636d; stroke:none;" d="M447 249L448 250L447 249z"/>
<path style="fill:#5f724b; stroke:none;" d="M26 250L27 251L26 250M102 250L103 251L102 250M176 250L177 251L176 250z"/>
<path style="fill:#b9db8f; stroke:none;" d="M448 250L449 251L448 250z"/>
<path style="fill:#66636d; stroke:none;" d="M449 250L450 251L449 250z"/>
<path style="fill:#5f724b; stroke:none;" d="M25 251L26 252L25 251z"/>
<path style="fill:#66636d; stroke:none;" d="M84 251L85 252L84 251M101 251L102 252L101 251z"/>
<path style="fill:#5f724b; stroke:none;" d="M194 251L195 252L194 251M451 251L452 252L451 251z"/>
<path style="fill:#b9db8f; stroke:none;" d="M453 252L454 253L453 252z"/>
<path style="fill:#66636d; stroke:none;" d="M454 252L455 253L454 252z"/>
<path style="fill:#5f724b; stroke:none;" d="M24.3333 253.667L24.6667 254.333L24.3333 253.667M100 253L101 254L100 253z"/>
<path style="fill:#66636d; stroke:none;" d="M178 253L179 254L178 253M195 253L196 254L195 253z"/>
<path style="fill:#5f724b; stroke:none;" d="M260 253L260 254L287 254L260 253z"/>
<path style="fill:#b9db8f; stroke:none;" d="M455 253L456 254L455 253z"/>
<path style="fill:#66636d; stroke:none;" d="M456 253L457 254L456 253z"/>
<path style="fill:#5f724b; stroke:none;" d="M82 254L83 255L82 254z"/>
<path style="fill:#b9db8f; stroke:none;" d="M260 254L260 263L287 263L287 254L260 254M457 254L458 255L457 254z"/>
<path style="fill:#66636d; stroke:none;" d="M458 254L459 255L458 254M24.3333 255.667L24.6667 256.333L24.3333 255.667z"/>
<path style="fill:#5f724b; stroke:none;" d="M99 255L100 256L99 255M179 255L180 256L179 255M460 255L461 256L460 255M81 256L82 257L81 256M197 256L198 257L197 256z"/>
<path style="fill:#b9db8f; stroke:none;" d="M462 256L463 257L462 256z"/>
<path style="fill:#66636d; stroke:none;" d="M463 256L464 257L463 256z"/>
<path style="fill:#5f724b; stroke:none;" d="M24.3333 257.667L24.6667 258.333L24.3333 257.667z"/>
<path style="fill:#66636d; stroke:none;" d="M141 257L142 258L141 257z"/>
<path style="fill:#5f724b; stroke:none;" d="M161 257L162 258L161 257z"/>
<path style="fill:#b9db8f; stroke:none;" d="M464 257L465 258L464 257z"/>
<path style="fill:#66636d; stroke:none;" d="M465 257L466 258L465 257z"/>
<path style="fill:#5f724b; stroke:none;" d="M80 258L81 259L80 258z"/>
<path style="fill:#66636d; stroke:none;" d="M143 258L144 259L143 258M159 258L160 259L159 258z"/>
<path style="fill:#5f724b; stroke:none;" d="M198 258L199 259L198 258M467 258L468 259L467 258z"/>
<path style="fill:#66636d; stroke:none;" d="M198 259L199 260L198 259z"/>
<path style="fill:#b9db8f; stroke:none;" d="M341 259L342 260L341 259z"/>
<path style="fill:#66636d; stroke:none;" d="M342 259L343 260L342 259z"/>
<path style="fill:#020201; stroke:none;" d="M343.019 259.742C337.274 262.036 336.501 269.777 342.059 272.821C347.221 275.648 362.567 275.387 367.895 272.991C373.641 270.406 373.83 262.412 367.895 259.894C362.496 257.602 348.463 257.569 343.019 259.742z"/>
<path style="fill:#66636d; stroke:none;" d="M367 259L368 260L367 259z"/>
<path style="fill:#5f724b; stroke:none;" d="M368 259L369 260L368 259z"/>
<path style="fill:#b9db8f; stroke:none;" d="M469 259L470 260L469 259z"/>
<path style="fill:#66636d; stroke:none;" d="M470 259L471 260L470 259z"/>
<path style="fill:#5f724b; stroke:none;" d="M25 260L26 261L25 260z"/>
<path style="fill:#66636d; stroke:none;" d="M145 260L146 261L145 260M157 260L158 261L157 260M340 260L341 261L340 260z"/>
<path style="fill:#b9db8f; stroke:none;" d="M370 260L371 261L370 260M471 260L472 261L471 260z"/>
<path style="fill:#66636d; stroke:none;" d="M472 260L473 261L472 260z"/>
<path style="fill:#5f724b; stroke:none;" d="M26 261L27 262L26 261M146 261L147 262L146 261z"/>
<path style="fill:#66636d; stroke:none;" d="M339 261L340 262L339 261z"/>
<path style="fill:#5f724b; stroke:none;" d="M474 261L475 262L474 261z"/>
<path style="fill:#66636d; stroke:none;" d="M28 262L29 263L28 262M146 262L147 263L146 262z"/>
<path style="fill:#5f724b; stroke:none;" d="M156 262L157 263L156 262M338 262L339 263L338 262z"/>
<path style="fill:#66636d; stroke:none;" d="M371 262L372 263L371 262z"/>
<path style="fill:#b9db8f; stroke:none;" d="M476 262L477 263L476 262z"/>
<path style="fill:#66636d; stroke:none;" d="M477 262L478 263L477 262z"/>
<path style="fill:#5f724b; stroke:none;" d="M30 263L30 264L39 264L30 263M260 263L260 264L287 264L260 263z"/>
<path style="fill:#b9db8f; stroke:none;" d="M372 263L373 264L372 263M478 263L479 264L478 263z"/>
<path style="fill:#66636d; stroke:none;" d="M479 263L480 264L479 263M198 264L199 265L198 264z"/>
<path style="fill:#5f724b; stroke:none;" d="M337 264L338 265L337 264z"/>
<path style="fill:#66636d; stroke:none;" d="M372 264L373 265L372 264z"/>
<path style="fill:#b9db8f; stroke:none;" d="M480 264L481 265L480 264z"/>
<path style="fill:#5f724b; stroke:none;" d="M80 265L81 266L80 265M198 265L199 266L198 265z"/>
<path style="fill:#66636d; stroke:none;" d="M337 265L337 268L338 268L337 265z"/>
<path style="fill:#b9db8f; stroke:none;" d="M481 265L482 266L481 265z"/>
<path style="fill:#66636d; stroke:none;" d="M482 265L483 266L482 265M146 266L147 267L146 266M156 266L157 267L156 266z"/>
<path style="fill:#5f724b; stroke:none;" d="M483 266L484 267L483 266M81 267L82 268L81 267M146 267L147 268L146 267M156 267L157 268L156 267M197 267L198 268L197 267M484 267L485 268L484 267z"/>
<path style="fill:#66636d; stroke:none;" d="M82 268L83 269L82 268z"/>
<path style="fill:#5f724b; stroke:none;" d="M196 268L197 269L196 268z"/>
<path style="fill:#b9db8f; stroke:none;" d="M337 268L338 269L337 268z"/>
<path style="fill:#66636d; stroke:none;" d="M372 268L373 269L372 268z"/>
<path style="fill:#5f724b; stroke:none;" d="M485 268L486 269L485 268z"/>
<path style="fill:#66636d; stroke:none;" d="M83 269L84 270L83 269M195 269L196 270L195 269z"/>
<path style="fill:#b9db8f; stroke:none;" d="M372 269L373 270L372 269z"/>
<path style="fill:#66636d; stroke:none;" d="M486 269L487 270L486 269z"/>
<path style="fill:#5f724b; stroke:none;" d="M84 270L85 271L84 270M144 270L145 271L144 270M194 270L195 271L194 270M338 270L339 271L338 270z"/>
<path style="fill:#66636d; stroke:none;" d="M371 270L372 271L371 270M487 270L488 271L487 270z"/>
<path style="fill:#5f724b; stroke:none;" d="M86 271L87 272L86 271M143 271L144 272L143 271M160 271L161 272L160 271M192 271L193 272L192 271z"/>
<path style="fill:#66636d; stroke:none;" d="M339 271L340 272L339 271z"/>
<path style="fill:#b9db8f; stroke:none;" d="M487 271L488 272L487 271z"/>
<path style="fill:#5f724b; stroke:none;" d="M121 272L122 273L121 272M142 272L143 273L142 272z"/>
<path style="fill:#66636d; stroke:none;" d="M340 272L341 273L340 272M369 272L370 273L369 272M488 272L489 273L488 272z"/>
<path style="fill:#5f724b; stroke:none;" d="M141 273L142 274L141 273z"/>
<path style="fill:#b9db8f; stroke:none;" d="M341 273L342 274L341 273z"/>
<path style="fill:#66636d; stroke:none;" d="M342 273L343 274L342 273M367 273L368 274L367 273z"/>
<path style="fill:#b9db8f; stroke:none;" d="M368 273L369 274L368 273z"/>
<path style="fill:#5f724b; stroke:none;" d="M29.6667 274.333L30.3333 274.667L29.6667 274.333z"/>
<path style="fill:#66636d; stroke:none;" d="M31 274L32 275L31 274z"/>
<path style="fill:#5f724b; stroke:none;" d="M140 274L141 275L140 274z"/>
<path style="fill:#66636d; stroke:none;" d="M489 274L490 275L489 274z"/>
<path style="fill:#5f724b; stroke:none;" d="M27 275L28 276L27 275M139 275L140 276L139 275z"/>
<path style="fill:#b9db8f; stroke:none;" d="M489 275L490 276L489 275z"/>
<path style="fill:#5f724b; stroke:none;" d="M26 276L27 277L26 276M138 276L139 277L138 276z"/>
<path style="fill:#66636d; stroke:none;" d="M490 276L491 277L490 276z"/>
<path style="fill:#5f724b; stroke:none;" d="M25 277L26 278L25 277M137 277L138 278L137 277M490 277L491 278L490 277z"/>
<path style="fill:#66636d; stroke:none;" d="M121 278L122 279L121 278z"/>
<path style="fill:#5f724b; stroke:none;" d="M136 278L137 279L136 278z"/>
<path style="fill:#66636d; stroke:none;" d="M260 278L260 279L287 279L260 278z"/>
<path style="fill:#b9db8f; stroke:none;" d="M490 278L491 279L490 278z"/>
<path style="fill:#5f724b; stroke:none;" d="M24 279L25 280L24 279M135 279L136 280L135 279z"/>
<path style="fill:#b9db8f; stroke:none;" d="M260 279L260 289L287 289L287 279L260 279z"/>
<path style="fill:#66636d; stroke:none;" d="M24 280L24 283L25 283L24 280z"/>
<path style="fill:#5f724b; stroke:none;" d="M122 280L123 281L122 280M134 280L135 281L134 280M123 281L124 282L123 281z"/>
<path style="fill:#b9db8f; stroke:none;" d="M472 281L473 282L472 281z"/>
<path style="fill:#5f724b; stroke:none;" d="M473 281L474 282L473 281z"/>
<path style="fill:#66636d; stroke:none;" d="M474 281L474 282L491 282L474 281z"/>
<path style="fill:#5f724b; stroke:none;" d="M124 282L125 283L124 282z"/>
<path style="fill:#66636d; stroke:none;" d="M131 282L132 283L131 282z"/>
<path style="fill:#b9db8f; stroke:none;" d="M469 282L470 283L469 282z"/>
<path style="fill:#5f724b; stroke:none;" d="M470 282L471 283L470 282M24.3333 283.667L24.6667 284.333L24.3333 283.667M128 283L129 284L128 283z"/>
<path style="fill:#b9db8f; stroke:none;" d="M467 283L468 284L467 283z"/>
<path style="fill:#66636d; stroke:none;" d="M468 283L469 284L468 283M466 284L467 285L466 284M25 285L26 286L25 285z"/>
<path style="fill:#b9db8f; stroke:none;" d="M464 285L465 286L464 285z"/>
<path style="fill:#5f724b; stroke:none;" d="M463 286L464 287L463 286M462 287L463 288L462 287M28 288L29 289L28 288M461 288L462 289L461 288M31 289L31 290L39 290L31 289z"/>
<path style="fill:#b9db8f; stroke:none;" d="M460 289L461 290L460 289z"/>
<path style="fill:#66636d; stroke:none;" d="M14 290L15 291L14 290z"/>
<path style="fill:#5f724b; stroke:none;" d="M14 291L15 292L14 291z"/>
<path style="fill:#66636d; stroke:none;" d="M459 291L460 292L459 291z"/>
<path style="fill:#b9db8f; stroke:none;" d="M458 292L459 293L458 292z"/>
<path style="fill:#66636d; stroke:none;" d="M458 293L459 294L458 293z"/>
<path style="fill:#b9db8f; stroke:none;" d="M457 294L458 295L457 294z"/>
<path style="fill:#66636d; stroke:none;" d="M9 295L10 296L9 295z"/>
<path style="fill:#5f724b; stroke:none;" d="M10 295L11 296L10 295M457 295L458 296L457 295z"/>
<path style="fill:#66636d; stroke:none;" d="M475 296L476 297L475 296z"/>
<path style="fill:#5f724b; stroke:none;" d="M476 296L477 297L476 296z"/>
<path style="fill:#b9db8f; stroke:none;" d="M477 296L477 297L491 297L477 296z"/>
<path style="fill:#66636d; stroke:none;" d="M491 296L492 297L491 296z"/>
<path style="fill:#b9db8f; stroke:none;" d="M474 297L475 298L474 297z"/>
<path style="fill:#edecef; stroke:none;" d="M491 323L491 297C486.417 297 478.37 295.469 474.434 298.179C470.124 301.145 470.49 318.171 474.318 321.397C478.095 324.579 486.367 323 491 323z"/>
<path style="fill:#5f724b; stroke:none;" d="M491 297L491 323L492 323L491 297M456 298L457 299L456 298z"/>
<path style="fill:#66636d; stroke:none;" d="M456 299L456 302L457 302L456 299z"/>
<path style="fill:#b9db8f; stroke:none;" d="M472 299L473 300L472 299z"/>
<path style="fill:#5f724b; stroke:none;" d="M29 300L30 301L29 300z"/>
<path style="fill:#66636d; stroke:none;" d="M30 300L31 301L30 300M471 300L472 301L471 300z"/>
<path style="fill:#5f724b; stroke:none;" d="M27 301L28 302L27 301z"/>
<path style="fill:#b9db8f; stroke:none;" d="M471 301L471 318L472 318L471 301z"/>
<path style="fill:#66636d; stroke:none;" d="M26 302L27 303L26 302z"/>
<path style="fill:#5f724b; stroke:none;" d="M25 303L26 304L25 303M24 305L25 306L24 305z"/>
<path style="fill:#66636d; stroke:none;" d="M24 306L24 309L25 309L24 306z"/>
<path style="fill:#5f724b; stroke:none;" d="M24 309L25 310L24 309M110 309L110 310L117 310L110 309M190 309L190 310L197 310L190 309z"/>
<path style="fill:#b9db8f; stroke:none;" d="M388 309L388 310L392 310L388 309z"/>
<path style="fill:#5f724b; stroke:none;" d="M392 309L393 310L392 309z"/>
<path style="fill:#b9db8f; stroke:none;" d="M393 309L393 310L398 310L393 309z"/>
<path style="fill:#5f724b; stroke:none;" d="M103 310L104 311L103 310z"/>
<path style="fill:#66636d; stroke:none;" d="M104 310L105 311L104 310M121 310L122 311L121 310z"/>
<path style="fill:#5f724b; stroke:none;" d="M122 310L123 311L122 310M184 310L185 311L184 310z"/>
<path style="fill:#66636d; stroke:none;" d="M185 310L186 311L185 310M202 310L203 311L202 310z"/>
<path style="fill:#5f724b; stroke:none;" d="M203 310L204 311L203 310z"/>
<path style="fill:#b9db8f; stroke:none;" d="M382 310L383 311L382 310z"/>
<path style="fill:#5f724b; stroke:none;" d="M383 310L384 311L383 310z"/>
<path style="fill:#66636d; stroke:none;" d="M384.667 310.333L385.333 310.667L384.667 310.333M400.667 310.333L401.333 310.667L400.667 310.333z"/>
<path style="fill:#5f724b; stroke:none;" d="M402 310L403 311L402 310z"/>
<path style="fill:#b9db8f; stroke:none;" d="M403 310L404 311L403 310z"/>
<path style="fill:#66636d; stroke:none;" d="M25 311L26 312L25 311z"/>
<path style="fill:#5f724b; stroke:none;" d="M99 311L100 312L99 311z"/>
<path style="fill:#66636d; stroke:none;" d="M100 311L101 312L100 311M125 311L126 312L125 311z"/>
<path style="fill:#5f724b; stroke:none;" d="M126 311L127 312L126 311M180 311L181 312L180 311z"/>
<path style="fill:#66636d; stroke:none;" d="M181 311L182 312L181 311M206 311L207 312L206 311z"/>
<path style="fill:#5f724b; stroke:none;" d="M207 311L208 312L207 311M379 311L380 312L379 311z"/>
<path style="fill:#66636d; stroke:none;" d="M380 311L381 312L380 311M405 311L406 312L405 311z"/>
<path style="fill:#5f724b; stroke:none;" d="M406 311L407 312L406 311z"/>
<path style="fill:#b9db8f; stroke:none;" d="M407 311L408 312L407 311z"/>
<path style="fill:#5f724b; stroke:none;" d="M96 312L97 313L96 312M129 312L130 313L129 312M177 312L178 313L177 312M210 312L211 313L210 312M376 312L377 313L376 312z"/>
<path style="fill:#66636d; stroke:none;" d="M377 312L378 313L377 312z"/>
<path style="fill:#5f724b; stroke:none;" d="M409 312L410 313L409 312z"/>
<path style="fill:#66636d; stroke:none;" d="M94 313L95 314L94 313M131 313L132 314L131 313M175 313L176 314L175 313M212 313L213 314L212 313M245 313L246 314L245 313M287 313L288 314L287 313z"/>
<path style="fill:#b9db8f; stroke:none;" d="M373 313L374 314L373 313z"/>
<path style="fill:#66636d; stroke:none;" d="M374 313L375 314L374 313M411 313L412 314L411 313z"/>
<path style="fill:#b9db8f; stroke:none;" d="M412 313L413 314L412 313z"/>
<path style="fill:#5f724b; stroke:none;" d="M28 314L29 315L28 314M91 314L92 315L91 314M134 314L135 315L134 314M172 314L173 315L172 314M215 314L216 315L215 314M245 314L246 315L245 314M259 314L260 315L259 314M287 314L288 315L287 314M301 314L302 315L301 314z"/>
<path style="fill:#b9db8f; stroke:none;" d="M371 314L372 315L371 314z"/>
<path style="fill:#66636d; stroke:none;" d="M372 314L373 315L372 314z"/>
<path style="fill:#b9db8f; stroke:none;" d="M414 314L415 315L414 314z"/>
<path style="fill:#5f724b; stroke:none;" d="M32 315L32 316L39 316L32 315z"/>
<path style="fill:#b9db8f; stroke:none;" d="M369 315L370 316L369 315z"/>
<path style="fill:#66636d; stroke:none;" d="M370 315L371 316L370 315z"/>
<path style="fill:#b9db8f; stroke:none;" d="M416 315L417 316L416 315z"/>
<path style="fill:#66636d; stroke:none;" d="M9 316L10 317L9 316z"/>
<path style="fill:#5f724b; stroke:none;" d="M10 316L11 317L10 316z"/>
<path style="fill:#66636d; stroke:none;" d="M88 316L89 317L88 316M137 316L138 317L137 316M169 316L170 317L169 316M218 316L219 317L218 316z"/>
<path style="fill:#5f724b; stroke:none;" d="M258 316L259 317L258 316M300 316L301 317L300 316z"/>
<path style="fill:#66636d; stroke:none;" d="M368 316L369 317L368 316M417 316L418 317L417 316z"/>
<path style="fill:#5f724b; stroke:none;" d="M86 317L87 318L86 317M139 317L140 318L139 317M167 317L168 318L167 317M220 317L221 318L220 317M257 317L258 318L257 317M289 317L290 318L289 317M299 317L300 318L299 317z"/>
<path style="fill:#b9db8f; stroke:none;" d="M366 317L367 318L366 317z"/>
<path style="fill:#5f724b; stroke:none;" d="M419 317L420 318L419 317z"/>
<path style="fill:#66636d; stroke:none;" d="M85 318L86 319L85 318M140 318L141 319L140 318M166 318L167 319L166 318M221 318L222 319L221 318z"/>
<path style="fill:#5f724b; stroke:none;" d="M249 318L250 319L249 318M255 318L256 319L255 318M291 318L292 319L291 318M297 318L298 319L297 318z"/>
<path style="fill:#66636d; stroke:none;" d="M365 318L366 319L365 318M420 318L421 319L420 318M456 318L456 321L457 321L456 318z"/>
<path style="fill:#5f724b; stroke:none;" d="M471 318L472 319L471 318z"/>
<path style="fill:#b9db8f; stroke:none;" d="M363 319L364 320L363 319M422 319L423 320L422 319z"/>
<path style="fill:#5f724b; stroke:none;" d="M14 320L15 321L14 320M82 320L83 321L82 320M143 320L144 321L143 320M163 320L164 321L163 320M224 320L225 321L224 320z"/>
<path style="fill:#b9db8f; stroke:none;" d="M362 320L363 321L362 320z"/>
<path style="fill:#5f724b; stroke:none;" d="M423 320L424 321L423 320M472 320L473 321L472 320z"/>
<path style="fill:#66636d; stroke:none;" d="M14 321L15 322L14 321M81 321L82 322L81 321z"/>
<path style="fill:#5f724b; stroke:none;" d="M144 321L145 322L144 321M162 321L163 322L162 321z"/>
<path style="fill:#66636d; stroke:none;" d="M225 321L226 322L225 321z"/>
<path style="fill:#5f724b; stroke:none;" d="M361 321L362 322L361 321z"/>
<path style="fill:#66636d; stroke:none;" d="M424 321L425 322L424 321z"/>
<path style="fill:#b9db8f; stroke:none;" d="M456 321L457 322L456 321M473 321L474 322L473 321z"/>
<path style="fill:#66636d; stroke:none;" d="M80 322L81 323L80 322M145 322L146 323L145 322M161 322L162 323L161 322M226 322L227 323L226 322M360 322L361 323L360 322M425 322L426 323L425 322M474 322L475 323L474 322M79 323L80 324L79 323M146 323L147 324L146 323M160 323L161 324L160 323M227 323L228 324L227 323M359 323L360 324L359 323M426 323L427 324L426 323M457 323L458 324L457 323M476 323L476 324L491 324L476 323M78 324L79 325L78 324M147 324L148 325L147 324M159 324L160 325L159 324M228 324L229 325L228 324M358 324L359 325L358 324z"/>
<path style="fill:#5f724b; stroke:none;" d="M457 324L458 325L457 324z"/>
<path style="fill:#66636d; stroke:none;" d="M77 325L78 326L77 325M106 325.468C65.8152 333 76.8513 397.287 117 390.384C160.957 382.826 149.694 317.278 106 325.468M148 325L149 326L148 325M158 325L159 326L158 325M187 325.468C146.751 333.061 157.966 397.268 198 390.384C241.993 382.82 230.748 317.214 187 325.468M229 325L230 326L229 325M357 325L358 326L357 325M386 325.468C343.896 333.411 358.453 397.935 400 389.904C442.158 381.756 427.995 317.545 386 325.468M428 325L429 326L428 325z"/>
<path style="fill:#b9db8f; stroke:none;" d="M456 325L457 326L456 325z"/>
<path style="fill:#5f724b; stroke:none;" d="M76 326L77 327L76 326M149 326L150 327L149 326M157 326L158 327L157 326M230 326L231 327L230 326M356 326L357 327L356 326z"/>
<path style="fill:#66636d; stroke:none;" d="M429 326L430 327L429 326z"/>
<path style="fill:#b9db8f; stroke:none;" d="M455 326L456 327L455 326z"/>
<path style="fill:#5f724b; stroke:none;" d="M75 327L76 328L75 327M150 327L151 328L150 327M156 327L157 328L156 327M231 327L232 328L231 327z"/>
<path style="fill:#b9db8f; stroke:none;" d="M355 327L356 328L355 327z"/>
<path style="fill:#5f724b; stroke:none;" d="M430 327L431 328L430 327z"/>
<path style="fill:#b9db8f; stroke:none;" d="M454 327L455 328L454 327M431 328L432 329L431 328M453 328L454 329L453 328z"/>
<path style="fill:#5f724b; stroke:none;" d="M260.667 329.333L261.333 329.667L260.667 329.333z"/>
<path style="fill:#66636d; stroke:none;" d="M262 329L263 330L262 329M354 329L355 330L354 329M453 329L454 330L453 329M73 330L74 331L73 330z"/>
<path style="fill:#5f724b; stroke:none;" d="M152 330L153 331L152 330M154 330L155 331L154 330z"/>
<path style="fill:#66636d; stroke:none;" d="M233 330L234 331L233 330z"/>
<path style="fill:#5f724b; stroke:none;" d="M258 330L259 331L258 330M353 330L354 331L353 330z"/>
<path style="fill:#66636d; stroke:none;" d="M432 330L433 331L432 330z"/>
<path style="fill:#b9db8f; stroke:none;" d="M452 330L453 331L452 330z"/>
<path style="fill:#5f724b; stroke:none;" d="M72 331L73 332L72 331M153 331L154 332L153 331M234 331L235 332L234 331M256 331L257 332L256 331z"/>
<path style="fill:#b9db8f; stroke:none;" d="M352 331L353 332L352 331z"/>
<path style="fill:#5f724b; stroke:none;" d="M433 331L434 332L433 331M452 331L453 332L452 331M255 332L256 333L255 332z"/>
<path style="fill:#66636d; stroke:none;" d="M352 332L353 333L352 332M452 332L453 333L452 332z"/>
<path style="fill:#5f724b; stroke:none;" d="M71 333L72 334L71 333M235 333L236 334L235 333M254 333L255 334L254 333M351 333L352 334L351 333z"/>
<path style="fill:#66636d; stroke:none;" d="M434 333L435 334L434 333z"/>
<path style="fill:#b9db8f; stroke:none;" d="M435 334L436 335L435 334z"/>
<path style="fill:#66636d; stroke:none;" d="M70 335L71 336L70 335M236 335L237 336L236 335z"/>
<path style="fill:#5f724b; stroke:none;" d="M253 335L254 336L253 335M350 335L351 336L350 335z"/>
<path style="fill:#66636d; stroke:none;" d="M435 335L436 336L435 335z"/>
<path style="fill:#b9db8f; stroke:none;" d="M436 336L437 337L436 336z"/>
<path style="fill:#66636d; stroke:none;" d="M69 337L70 338L69 337z"/>
<path style="fill:#020201; stroke:none;" d="M108 337.532C81.9329 343.732 92.0709 383.464 118 377.471C144.025 371.455 133.658 331.43 108 337.532M190 337.468C163.23 342.572 172.501 383.381 199 377.61C224.611 372.032 215.458 332.615 190 337.468z"/>
<path style="fill:#66636d; stroke:none;" d="M237 337L238 338L237 337z"/>
<path style="fill:#5f724b; stroke:none;" d="M252 337L253 338L252 337M349 337L350 338L349 337z"/>
<path style="fill:#020201; stroke:none;" d="M389 337.468C362.465 342.56 371.635 383.352 398 377.61C423.788 371.993 414.466 332.582 389 337.468z"/>
<path style="fill:#66636d; stroke:none;" d="M436 337L437 338L436 337M252 338L253 339L252 338z"/>
<path style="fill:#b9db8f; stroke:none;" d="M327 338L327 350L328 350L327 338M437 338L438 339L437 338z"/>
<path style="fill:#66636d; stroke:none;" d="M467 338L467 339L497 339L467 338z"/>
<path style="fill:#5f724b; stroke:none;" d="M68 339L69 340L68 339M238 339L239 340L238 339M348 339L349 340L348 339z"/>
<path style="fill:#66636d; stroke:none;" d="M437 339L438 340L437 339z"/>
<path style="fill:#b9db8f; stroke:none;" d="M467 339L467 354L497 354L497 339L467 339z"/>
<path style="fill:#66636d; stroke:none;" d="M348 340L349 341L348 340z"/>
<path style="fill:#5f724b; stroke:none;" d="M67 341L68 342L67 341M239 341L240 342L239 341z"/>
<path style="fill:#b9db8f; stroke:none;" d="M347 341L348 342L347 341z"/>
<path style="fill:#5f724b; stroke:none;" d="M438 341L439 342L438 341z"/>
<path style="fill:#66636d; stroke:none;" d="M67 342L68 343L67 342M239 342L240 343L239 342z"/>
<path style="fill:#5f724b; stroke:none;" d="M347 342L348 343L347 342z"/>
<path style="fill:#66636d; stroke:none;" d="M438 342L439 343L438 342M347 343L348 344L347 343z"/>
<path style="fill:#b9db8f; stroke:none;" d="M267 344L267 345L312 345C300.299 340.09 279.742 344 267 344M346 344L347 345L346 344M439 344L440 345L439 344z"/>
<path style="fill:#5f724b; stroke:none;" d="M66 345L67 346L66 345M240 345L241 346L240 345z"/>
<path style="fill:#edecef; stroke:none;" d="M267 345L267 371L312 371L312 345L267 345z"/>
<path style="fill:#5f724b; stroke:none;" d="M346 345L347 346L346 345z"/>
<path style="fill:#66636d; stroke:none;" d="M439 345L440 346L439 345M240 346L241 347L240 346M346 346L347 347L346 346z"/>
<path style="fill:#b9db8f; stroke:none;" d="M440.333 347.667L440.667 348.333L440.333 347.667z"/>
<path style="fill:#5f724b; stroke:none;" d="M65 349L66 350L65 349M241 349L242 350L241 349z"/>
<path style="fill:#b9db8f; stroke:none;" d="M345 349L346 350L345 349z"/>
<path style="fill:#5f724b; stroke:none;" d="M440 349L441 350L440 349z"/>
<path style="fill:#66636d; stroke:none;" d="M110 352L111 353L110 352z"/>
<path style="fill:#5f724b; stroke:none;" d="M111 352L112 353L111 352z"/>
<path style="fill:#b9db8f; stroke:none;" d="M112.054 352.971C106.22 354.274 107.724 363.606 113.896 362.458C119.824 361.354 117.97 351.649 112.054 352.971z"/>
<path style="fill:#5f724b; stroke:none;" d="M114 352L115 353L114 352z"/>
<path style="fill:#66636d; stroke:none;" d="M115 352L116 353L115 352M191 352L192 353L191 352z"/>
<path style="fill:#5f724b; stroke:none;" d="M192 352L193 353L192 352z"/>
<path style="fill:#b9db8f; stroke:none;" d="M193.054 352.971C187.231 354.272 188.92 363.565 194.957 362.458C201.015 361.346 198.919 351.66 193.054 352.971z"/>
<path style="fill:#5f724b; stroke:none;" d="M195 352L196 353L195 352z"/>
<path style="fill:#66636d; stroke:none;" d="M196 352L197 353L196 352M390 352L388 355L390 352z"/>
<path style="fill:#5f724b; stroke:none;" d="M391 352L392 353L391 352z"/>
<path style="fill:#b9db8f; stroke:none;" d="M392.054 352.971C386.23 354.272 387.92 363.565 393.957 362.458C400.015 361.346 397.919 351.66 392.054 352.971z"/>
<path style="fill:#5f724b; stroke:none;" d="M394 352L395 353L394 352z"/>
<path style="fill:#66636d; stroke:none;" d="M395 352L396 353L395 352z"/>
<path style="fill:#5f724b; stroke:none;" d="M109 353L110 354L109 353M116 353L117 354L116 353M190 353L191 354L190 353M197 353L198 354L197 353M396 353L397 354L396 353M108 354L109 355L108 354z"/>
<path style="fill:#66636d; stroke:none;" d="M117 354L118 355L117 354M189 354L190 355L189 354z"/>
<path style="fill:#5f724b; stroke:none;" d="M198 354L199 355L198 354M397 354L398 355L397 354z"/>
<path style="fill:#66636d; stroke:none;" d="M467 354L467 355L497 355L467 354M398.333 355.667L398.667 356.333L398.333 355.667M107 356L108 357L107 356M118 356L118 359L119 359L118 356M188 356L188 359L189 359L188 356M199 356L199 360L200 360L199 356M387 356L387 359L388 359L387 356z"/>
<path style="fill:#5f724b; stroke:none;" d="M107 357L108 358L107 357M398.333 357.667L398.667 358.333L398.333 357.667z"/>
<path style="fill:#66636d; stroke:none;" d="M107.333 358.667L107.667 359.333L107.333 358.667M398 359L399 360L398 359z"/>
<path style="fill:#5f724b; stroke:none;" d="M117 360L118 361L117 360M189 360L190 361L189 360M388 360L389 361L388 360M110 362L111 363L110 362z"/>
<path style="fill:#66636d; stroke:none;" d="M115 362L116 363L115 362M191 362L192 363L191 362z"/>
<path style="fill:#5f724b; stroke:none;" d="M196 362L197 363L196 362z"/>
<path style="fill:#66636d; stroke:none;" d="M390 362L391 363L390 362z"/>
<path style="fill:#5f724b; stroke:none;" d="M395 362L396 363L395 362z"/>
</svg>
